<svg xmlns="http://www.w3.org/2000/svg" data-name="Layer 2" viewBox="0 0 64 80" x="0px" y="0px"><title>fingerprints</title><path d="M35.63,36.25a28.15,28.15,0,0,1-.59,4A30.05,30.05,0,0,1,34,44a30.73,30.73,0,0,1-1.54,3.66,32,32,0,0,1-2,3.5A31.71,31.71,0,0,1,28,54.45a1,1,0,0,0,1.46,1.25,33.58,33.58,0,0,0,2.6-3.48,33.74,33.74,0,0,0,2.08-3.7,32.51,32.51,0,0,0,1.63-3.88,31.64,31.64,0,0,0,1.11-4,30,30,0,0,0,.63-4.27s0-.06,0-.09a32.34,32.34,0,0,0-.07-6.2c0-.14,0-.27,0-.41a4,4,0,0,0-.07-.44,4.45,4.45,0,0,0-8.75,1.46,7.59,7.59,0,0,1,.06.78,27.8,27.8,0,0,1,0,4.94v.07h0A25.59,25.59,0,0,1,28.19,40a32.28,32.28,0,0,1-.91,3.33l0,.1a29.32,29.32,0,0,1-1.32,3.18.93.93,0,0,0-.08.15,26,26,0,0,1-1.76,3.08,27.32,27.32,0,0,1-2.22,2.95A1,1,0,0,0,23.31,54a29.31,29.31,0,0,0,2.38-3.15,27.76,27.76,0,0,0,1.88-3.28l0-.08A31.75,31.75,0,0,0,29,44.13l0-.12a34.34,34.34,0,0,0,1-3.62,27.49,27.49,0,0,0,.56-3.77v-.08h0a29.14,29.14,0,0,0,0-5.22,8.71,8.71,0,0,0-.07-.9,2.53,2.53,0,0,1,5-.82,2.34,2.34,0,0,1,0,.24,2,2,0,0,1,0,.24,1,1,0,0,0,0,.1,30.42,30.42,0,0,1,.06,5.94A.88.88,0,0,0,35.63,36.25Z"/><path d="M33.57,56.31a1,1,0,0,0,.78-.4A38.16,38.16,0,0,0,36.81,52a36.65,36.65,0,0,0,2-4.16,37.07,37.07,0,0,0,1.48-4.47l0-.08a34.41,34.41,0,0,0,.94-4.92,37,37,0,0,0,.14-8.09c0-.34,0-.67-.09-1s-.08-.67-.14-1a1,1,0,0,0,0-.12,8,8,0,0,0-5.59-5.59,8.4,8.4,0,0,0-3.4-.29,8.62,8.62,0,0,0-4.27,1.72,7.87,7.87,0,0,0-3.13,7.17,24.09,24.09,0,0,1-.16,6.74,21.79,21.79,0,0,1-.9,3.72l0,.1a20.1,20.1,0,0,1-1.35,3.24l0,.1a22.78,22.78,0,0,1-1.78,3,26.16,26.16,0,0,1-2.26,2.79,1,1,0,0,0,1.41,1.31,28.15,28.15,0,0,0,2.43-3,24.67,24.67,0,0,0,2-3.31l0-.05a22.1,22.1,0,0,0,1.46-3.54l0-.08a23.65,23.65,0,0,0,1-4,26,26,0,0,0,.17-7.26A6,6,0,0,1,29,25.47a6.7,6.7,0,0,1,3.32-1.33,6.45,6.45,0,0,1,2.64.22,6.09,6.09,0,0,1,4.26,4.18h0c.06.29.09.59.13.89s.07.59.08,1a35.08,35.08,0,0,1-.14,7.72,32.34,32.34,0,0,1-.91,4.73l0,.09A35.16,35.16,0,0,1,37,47.1,34.83,34.83,0,0,1,35.12,51a36.41,36.41,0,0,1-2.34,3.74,1,1,0,0,0,.78,1.52Z"/><path d="M15.57,50.14a1,1,0,0,0,.66-.26,22.32,22.32,0,0,0,6.14-10.46,22,22,0,0,0,.44-6.12A16.91,16.91,0,0,1,23.42,27a10,10,0,0,1,8.92-6.43A10,10,0,0,1,42,25.69a1,1,0,0,0,1.69-.91,11.86,11.86,0,0,0-11.51-6.09,11.92,11.92,0,0,0-10.59,7.69,18.6,18.6,0,0,0-.73,7,20.29,20.29,0,0,1-.38,5.6,20.38,20.38,0,0,1-5.6,9.55,1,1,0,0,0,.66,1.66Z"/><path d="M38,55.59a1,1,0,0,0,1.32-.34,42.46,42.46,0,0,0,5.85-22,1,1,0,0,0-1-1h0a1,1,0,0,0-1,1,40.53,40.53,0,0,1-5.59,21A1,1,0,0,0,38,55.59Z"/><path d="M43.34,53.92a1,1,0,0,0,.41.09,1,1,0,0,0,.87-.55c3.83-8.15,8.63-25.81-.61-34.35a16.07,16.07,0,0,0-17.88-2.44,14.92,14.92,0,0,0-8.86,14.48A1,1,0,0,0,19.18,31a12.87,12.87,0,0,1,7.76-12.64A14.15,14.15,0,0,1,42.7,20.52c8.42,7.79,3.8,24.42.18,32.13A1,1,0,0,0,43.34,53.92Z"/><path d="M18.4,32.8h0a1,1,0,0,0-1,1,16.1,16.1,0,0,1-5.32,11.9,1,1,0,0,0,1.28,1.43,18,18,0,0,0,6-13.35A1,1,0,0,0,18.4,32.8Z"/><path d="M20.51,18.29a16.76,16.76,0,0,1,3.06-2.39,17.92,17.92,0,0,1,5.87-2.33c.53-.11,1.08-.2,1.63-.26a19.35,19.35,0,0,1,2.62-.12,18.05,18.05,0,0,1,4.76.79,17.6,17.6,0,0,1,5.3,2.62l.1.09A16.53,16.53,0,0,1,50.41,27v.11c0,.32.09.66.13,1s.08.69.11,1.11a49,49,0,0,1-.58,13.39,48.94,48.94,0,0,1-1.76,6.84,1,1,0,1,0,1.82.61A50.91,50.91,0,0,0,52,43a51,51,0,0,0,.6-14c0-.36-.07-.74-.12-1.14s-.08-.71-.13-1l0-.13A18.47,18.47,0,0,0,45.1,15.21L45,15.12a19.48,19.48,0,0,0-6-3,20,20,0,0,0-5.27-.87,22.31,22.31,0,0,0-2.89.13c-.62.07-1.23.17-1.81.29a19.82,19.82,0,0,0-6.48,2.57,18.67,18.67,0,0,0-3.41,2.66,1,1,0,0,0,1.35,1.37Z"/><path d="M16.59,20a18.94,18.94,0,0,0-2,4,18.36,18.36,0,0,0-1,8.46c0,.28.05.56.06.87A11.46,11.46,0,0,1,12,39.52a11.48,11.48,0,0,1-2.33,2.9A1,1,0,1,0,11,43.84a13.35,13.35,0,0,0,2.71-3.37,13.34,13.34,0,0,0,1.8-7.28c0-.33,0-.67-.07-1a16.43,16.43,0,0,1,.92-7.57,17,17,0,0,1,1.83-3.56A1,1,0,1,0,16.59,20Z"/><path d="M8.46,40.31a1,1,0,0,0,.7-.31,9.31,9.31,0,0,0,2.45-7.38,19.78,19.78,0,0,1,.49-7.22,19.56,19.56,0,0,1,1.45-3.85,18.41,18.41,0,0,1,1.95-3.21,20.34,20.34,0,0,1,2.41-2.73,1,1,0,0,0-1.32-1.4,22.26,22.26,0,0,0-2.64,3,20.21,20.21,0,0,0-2.14,3.52,21.38,21.38,0,0,0-1.58,4.21,21.69,21.69,0,0,0-.54,7.92,7.38,7.38,0,0,1-2,5.85,1,1,0,0,0,.7,1.61Z"/><path d="M21.05,13.15A22,22,0,0,1,38.8,10.36,21.06,21.06,0,0,1,52.32,21,1,1,0,1,0,54,20.14,23,23,0,0,0,39.29,8.51a23.92,23.92,0,0,0-19.3,3,1,1,0,0,0,1.06,1.6Z"/><path d="M53.47,44.3a1,1,0,0,0,.75,1.13l.19,0a1,1,0,0,0,.94-.77,60.82,60.82,0,0,0,1-16.41,1,1,0,0,0-1.92.15A58.88,58.88,0,0,1,53.47,44.3Z"/></svg>