<svg xmlns="http://www.w3.org/2000/svg" data-name="Layer 2" viewBox="0 0 32 40" x="0px" y="0px"><title>witch book, spell, incantation, magic, curse_1</title><polygon points="16 8.081 15.694 9 16.306 9 16 8.081"/><polygon points="16 11.875 17.012 11.116 16.64 10 15.36 10 14.988 11.116 16 11.875"/><path d="M19.444,9a3.99,3.99,0,0,0-2.726-1.927L17.36,9Z"/><polygon points="14.314 13.14 15.167 12.5 14.655 12.116 14.314 13.14"/><path d="M15.282,7.073A3.99,3.99,0,0,0,12.556,9H14.64Z"/><polygon points="18.5 10 17.694 10 17.855 10.484 18.5 10"/><polygon points="16.833 12.5 17.686 13.14 17.345 12.116 16.833 12.5"/><polygon points="14.306 10 13.5 10 14.145 10.484 14.306 10"/><path d="M25,2H9A4,4,0,0,0,5,6V22.26A5.451,5.451,0,0,1,8.5,21H26a1,1,0,0,0,1-1V4A2.006,2.006,0,0,0,25,2ZM16,17a6,6,0,1,1,6-6A6.007,6.007,0,0,1,16,17Z"/><path d="M18.188,11.484l.74,2.221a3.956,3.956,0,0,0,.988-3.517Z"/><path d="M12,11a3.973,3.973,0,0,0,1.072,2.7l.74-2.221-1.728-1.3A4,4,0,0,0,12,11Z"/><path d="M14.14,14.52a3.841,3.841,0,0,0,3.72,0L16,13.125Z"/><path d="M25.5,23H9a3.5,3.5,0,0,0,0,7H24.5a2,2,0,0,0,2-2V24A1,1,0,0,0,25.5,23Z"/></svg>