<svg xmlns="http://www.w3.org/2000/svg" data-name="Layer 2" viewBox="0 0 128 160" x="0px" y="0px"><path d="M114.06,47.41h-5.29v-3.4c0-1.77-1.44-3.21-3.21-3.21h-9.22c-1.77,0-3.21,1.44-3.21,3.21v3.4h-4.74v-3.4c0-1.77-1.44-3.21-3.21-3.21h-9.22c-1.77,0-3.21,1.44-3.21,3.21v3.4H31.75v-1.28l19.38-18.18c5.18-.7,7.33-7.02,3.62-10.71-3.75-3.73-10.14-1.47-10.76,3.7l-21.13,19.86h-3.54c-1.77,0-3.21,1.44-3.21,3.21v3.4h-2.16c-2.72,0-4.94,2.21-4.94,4.92v55.36c0,2.71,2.21,4.92,4.94,4.92H114.06c2.72,0,4.94-2.21,4.94-4.92V52.33c0-2.71-2.21-4.92-4.94-4.92Zm1.94,60.29c0,1.06-.87,1.92-1.94,1.92H13.94c-1.07,0-1.94-.86-1.94-1.92V52.33c0-1.06,.87-1.92,1.94-1.92H114.06c1.07,0,1.94,.86,1.94,1.92v55.36ZM19.1,44.01c0-.31-.11-.21,5.38-.21,4.22,0,4.27-.09,4.27,.21v3.4h-9.65v-3.4ZM52.63,19.36c.66,.66,.98,1.56,.98,2.34,0,3.98-5.97,4.54-6.62,.53-.52-3.21,3.4-5.12,5.65-2.88Zm-8.04,5.13c.63,1.27,1.61,2.24,2.82,2.84l-16.09,15.1c-1.04-1.82-2.72-1.63-4.11-1.63l17.38-16.31Zm31.15,19.53c0-.31-.49-.21,9.44-.21,.3,0,.21-.03,.21,3.62h-9.65v-3.4Zm20.39,0c0-.31-.49-.21,9.44-.21,.3,0,.21-.03,.21,3.62h-9.65v-3.4Z"/><path d="M110.62,92.84H47.08c-.83,0-1.5,.67-1.5,1.5v9.93c0,.83,.67,1.5,1.5,1.5h63.54c.83,0,1.5-.67,1.5-1.5v-9.93c0-.83-.67-1.5-1.5-1.5Zm-1.5,9.93H48.58v-6.93h60.54v6.93Z"/><path d="M110.62,54.26H17.38c-.83,0-1.5,.67-1.5,1.5v18.85c0,.83,.67,1.5,1.5,1.5H110.62c.83,0,1.5-.67,1.5-1.5v-18.85c0-.83-.67-1.5-1.5-1.5Zm-1.5,18.85H33.16v-9.11c0-.83-.67-1.5-1.5-1.5h-5.26c-.83,0-1.5,.67-1.5,1.5v9.11h-6.02v-15.85H109.12v15.85Zm-81.22,0v-7.61h2.26v7.61h-2.26Z"/><path d="M28.83,79.96c-7.14,0-12.96,5.79-12.96,12.91s5.81,12.91,12.96,12.91,12.96-5.79,12.96-12.91-5.81-12.91-12.96-12.91Zm0,22.81c-5.49,0-9.96-4.44-9.96-9.91s4.47-9.91,9.96-9.91,9.96,4.44,9.96,9.91-4.47,9.91-9.96,9.91Z"/><path d="M28.83,86.81c-3.35,0-6.08,2.72-6.08,6.06s2.73,6.06,6.08,6.06,6.08-2.72,6.08-6.06-2.73-6.06-6.08-6.06Zm0,9.12c-1.7,0-3.08-1.37-3.08-3.06s1.38-3.06,3.08-3.06,3.08,1.37,3.08,3.06-1.38,3.06-3.08,3.06Z"/><path d="M110.62,80H47.08c-.83,0-1.5,.67-1.5,1.5v5.99c0,.83,.67,1.5,1.5,1.5h63.54c.83,0,1.5-.67,1.5-1.5v-5.99c0-.83-.67-1.5-1.5-1.5Zm-1.5,5.99H48.58v-2.99h60.54v2.99Z"/></svg>