<svg xmlns="http://www.w3.org/2000/svg" viewBox="0 0 64 80" x="0px" y="0px"><g><path d="M48,2H16a2,2,0,0,0-2,2V29a1,1,0,0,0,.684.948l5.189,1.731L17.014,48.836A1,1,0,0,0,17,49V60a2,2,0,0,0,2,2H45a2,2,0,0,0,2-2V49a1,1,0,0,0-.014-.164L44.127,31.679l5.189-1.731A1,1,0,0,0,50,29V4A2,2,0,0,0,48,2Zm0,26.279-5.316,1.773a1,1,0,0,0-.67,1.112L45,49.083V60H19V49.083l2.986-17.919a1,1,0,0,0-.67-1.112L16,28.279V4H48Z"/><path d="M36,34a4,4,0,1,0-4,4A4,4,0,0,0,36,34Zm-6,0a2,2,0,1,1,2,2A2,2,0,0,1,30,34Z"/><path d="M32,40a9,9,0,1,0,9,9A9.01,9.01,0,0,0,32,40Zm0,16a7,7,0,1,1,7-7A7.009,7.009,0,0,1,32,56Z"/><path d="M32,44a1,1,0,0,0-1,1v8a1,1,0,0,0,2,0V45A1,1,0,0,0,32,44Z"/><path d="M18,28H46a1,1,0,0,0,1-1V6a1,1,0,0,0-1-1H18a1,1,0,0,0-1,1V27A1,1,0,0,0,18,28ZM19,7H45V26H19Z"/><path d="M40.485,11.515c-.009-.009-.021-.012-.03-.021a11.977,11.977,0,0,0-16.91,0c-.009.009-.021.012-.03.021s-.012.021-.021.03A11.96,11.96,0,0,0,20,20a1,1,0,0,0,1,1h2a1,1,0,0,0,0-2h-.949a9.952,9.952,0,0,1,2.211-5.324l.667.667a1,1,0,0,0,1.414-1.414l-.667-.667A9.952,9.952,0,0,1,31,10.051V11a1,1,0,0,0,2,0v-.949a9.952,9.952,0,0,1,5.324,2.211l-.667.667a1,1,0,1,0,1.414,1.414l.667-.667A9.952,9.952,0,0,1,41.949,19H41a1,1,0,0,0,0,2h2a1,1,0,0,0,1-1,11.96,11.96,0,0,0-3.494-8.455C40.5,11.536,40.494,11.524,40.485,11.515Z"/><path d="M32,15a1,1,0,0,0-1,1v6a1,1,0,0,0,2,0V16A1,1,0,0,0,32,15Z"/></g></svg>